<svg width="30" height="30" viewBox="0 0 30 30" fill="none" xmlns="http://www.w3.org/2000/svg">
<path fill-rule="evenodd" clip-rule="evenodd" d="M5.9433 15C5.9433 9.99492 10.0007 5.9375 15.0058 5.9375C20.0109 5.9375 24.0683 9.99492 24.0683 15C24.0683 15.0421 24.0711 15.0835 24.0764 15.1242C24.0724 15.1633 24.0708 15.2032 24.0718 15.2436C24.0795 15.5618 24.0387 16.0555 23.9342 16.5274C23.8203 17.0414 23.6721 17.3368 23.5853 17.4278C23.2079 17.8238 22.6887 18.0537 22.1418 18.0668C21.595 18.08 21.0653 17.8754 20.6693 17.498C20.4104 17.2513 20.3361 16.8892 20.3159 16.0477L20.1715 10.05C20.1591 9.53241 19.7294 9.12289 19.2118 9.13535C18.6941 9.14781 18.2846 9.57752 18.2971 10.0951L18.3179 10.9609C17.4166 10.2209 16.263 9.77669 15.0058 9.77669C12.1211 9.77669 9.78256 12.1152 9.78256 14.9999C9.78256 17.8846 12.1211 20.2231 15.0058 20.2231C16.5988 20.2231 18.0252 19.51 18.9833 18.3855C19.0907 18.549 19.22 18.7069 19.3758 18.8553C20.1317 19.5758 21.1429 19.9664 22.1869 19.9413C23.2309 19.9162 24.2222 19.4773 24.9426 18.7214C25.4047 18.2365 25.6386 17.5027 25.7648 16.9329C25.9004 16.3208 25.9577 15.6757 25.9463 15.1985C25.9454 15.1641 25.9428 15.1302 25.9384 15.0969C25.9416 15.065 25.9433 15.0327 25.9433 15C25.9433 8.95939 21.0464 4.0625 15.0058 4.0625C8.96518 4.0625 4.0683 8.95939 4.0683 15C4.0683 21.0406 8.96518 25.9375 15.0058 25.9375C17.5596 25.9375 19.9113 25.0611 21.7728 23.5933C22.1794 23.2728 22.2491 22.6833 21.9286 22.2767C21.608 21.8701 21.0185 21.8004 20.6119 22.121C19.0693 23.3373 17.1235 24.0625 15.0058 24.0625C10.0007 24.0625 5.9433 20.0051 5.9433 15ZM15.0058 11.6517C13.1566 11.6517 11.6576 13.1507 11.6576 14.9999C11.6576 16.8491 13.1566 18.3481 15.0058 18.3481C16.8549 18.3481 18.354 16.8491 18.354 14.9999C18.354 13.1507 16.8549 11.6517 15.0058 11.6517Z" fill="black"/>
</svg>
