<svg width="25" height="26" viewBox="0 0 25 26" fill="none" xmlns="http://www.w3.org/2000/svg">
<path fill-rule="evenodd" clip-rule="evenodd" d="M10.8371 8.69993C10.8572 8.43943 11.0744 8.23828 11.3356 8.23828H11.5646C11.8215 8.23828 12.0366 8.43293 12.0621 8.68853L12.5894 13.9607L16.3431 16.1057C16.4989 16.1947 16.595 16.3604 16.595 16.5398V16.7395C16.595 17.0692 16.2816 17.3086 15.9635 17.2219L10.6991 15.7861C10.4677 15.723 10.3137 15.5045 10.3321 15.2654L10.8371 8.69993Z" fill="#6FC0ED"/>
<path fill-rule="evenodd" clip-rule="evenodd" d="M5.86018 1.16781C5.59607 0.853065 5.08613 0.973537 4.9908 1.3732L3.64342 7.02195C3.56575 7.3476 3.82382 7.6561 4.15807 7.63715L9.969 7.30786C10.3799 7.28457 10.5883 6.80255 10.3237 6.48727L8.86828 4.75273C9.86814 4.41106 10.9284 4.2326 12.0171 4.2326C17.3898 4.2326 21.7452 8.58802 21.7452 13.9607C21.7452 19.3334 17.3898 23.6888 12.0171 23.6888C6.64439 23.6888 2.28897 19.3334 2.28897 13.9607C2.28897 13.0588 2.41111 12.1754 2.64926 11.3263L0.445357 10.7081C0.155186 11.7426 0 12.8335 0 13.9607C0 20.5975 5.38023 25.9778 12.0171 25.9778C18.6539 25.9778 24.0341 20.5975 24.0341 13.9607C24.0341 7.32386 18.6539 1.94363 12.0171 1.94363C10.3477 1.94363 8.75777 2.28404 7.31301 2.89923L5.86018 1.16781Z" fill="white"/>
</svg>
