<svg width="43" height="46" viewBox="0 0 43 46" fill="none" xmlns="http://www.w3.org/2000/svg">
<path fill-rule="evenodd" clip-rule="evenodd" d="M19.2693 13.9997C19.2893 13.7392 19.5065 13.5381 19.7678 13.5381H20.8844C21.1413 13.5381 21.3563 13.7327 21.3819 13.9883L22.3529 23.6986L29.2134 27.6188C29.3691 27.7079 29.4653 27.8735 29.4653 28.053V29.1403C29.4653 29.47 29.1518 29.7094 28.8337 29.6227L18.6874 26.8555C18.456 26.7924 18.302 26.5739 18.3204 26.3347L19.2693 13.9997Z" fill="#6FC0ED"/>
<path fill-rule="evenodd" clip-rule="evenodd" d="M9.90947 0.393583C9.64536 0.078835 9.13542 0.199305 9.04009 0.598968L6.34807 11.885C6.27039 12.2106 6.52846 12.5191 6.86271 12.5002L18.4728 11.8423C18.8837 11.819 19.0921 11.337 18.8275 11.0217L15.746 7.34931C17.5214 6.74261 19.404 6.42573 21.3371 6.42573C30.8766 6.42573 38.6099 14.1591 38.6099 23.6986C38.6099 33.2381 30.8766 40.9715 21.3371 40.9715C11.7975 40.9715 4.0642 33.2381 4.0642 23.6986C4.0642 22.0972 4.28107 20.5286 4.70393 19.0211L0.790759 17.9235C0.275542 19.7603 0 21.6972 0 23.6986C0 35.4827 9.55293 45.0357 21.3371 45.0357C33.1212 45.0357 42.6741 35.4827 42.6741 23.6986C42.6741 11.9145 33.1212 2.36153 21.3371 2.36153C18.3729 2.36153 15.5499 2.96597 12.9845 4.05832L9.90947 0.393583Z" fill="#6FC0ED"/>
</svg>
