<svg width="25" height="25" viewBox="0 0 25 25" fill="none" xmlns="http://www.w3.org/2000/svg">
<path fill-rule="evenodd" clip-rule="evenodd" d="M10.8371 7.71104C10.8572 7.45054 11.0744 7.24939 11.3356 7.24939H11.5646C11.8215 7.24939 12.0366 7.44404 12.0621 7.69964L12.5894 12.9718L16.3431 15.1168C16.4989 15.2058 16.595 15.3715 16.595 15.5509V15.7506C16.595 16.0803 16.2816 16.3198 15.9635 16.233L10.6991 14.7973C10.4677 14.7342 10.3137 14.5156 10.3321 14.2765L10.8371 7.71104Z" fill="black"/>
<path opacity="0.3" fill-rule="evenodd" clip-rule="evenodd" d="M5.86018 0.178922C5.59607 -0.135826 5.08613 -0.0153544 4.9908 0.384308L3.64342 6.03305C3.56575 6.3587 3.82382 6.6672 4.15807 6.64826L9.969 6.31897C10.3799 6.29568 10.5883 5.81365 10.3237 5.49837L8.86828 3.76383C9.86814 3.42216 10.9284 3.24371 12.0171 3.24371C17.3898 3.24371 21.7452 7.59913 21.7452 12.9718C21.7452 18.3445 17.3898 22.6999 12.0171 22.6999C6.64439 22.6999 2.28897 18.3445 2.28897 12.9718C2.28897 12.0699 2.41111 11.1865 2.64926 10.3375L0.445357 9.71926C0.155186 10.7537 0 11.8446 0 12.9718C0 19.6087 5.38023 24.9889 12.0171 24.9889C18.6539 24.9889 24.0341 19.6087 24.0341 12.9718C24.0341 6.33497 18.6539 0.954742 12.0171 0.954742C10.3477 0.954742 8.75777 1.29515 7.31301 1.91034L5.86018 0.178922Z" fill="black"/>
</svg>
