<svg width="20" height="20" viewBox="0 0 20 20" fill="none" xmlns="http://www.w3.org/2000/svg">
<circle cx="10" cy="10" r="10" fill="#FA2618"/>
<path d="M13.795 7.19503C14.0683 6.92165 14.0683 6.47841 13.795 6.20503C13.5216 5.93166 13.0783 5.93166 12.805 6.20503L10 9.01L7.19503 6.20503C6.92165 5.93166 6.47842 5.93166 6.20504 6.20503C5.93166 6.47841 5.93166 6.92165 6.20504 7.19503L9.01001 10L6.20503 12.805C5.93166 13.0784 5.93166 13.5216 6.20503 13.795C6.47841 14.0683 6.92165 14.0683 7.19502 13.795L10 10.99L12.805 13.795C13.0784 14.0683 13.5216 14.0683 13.795 13.795C14.0683 13.5216 14.0683 13.0784 13.795 12.805L10.99 10L13.795 7.19503Z" fill="white"/>
</svg>
