<svg width="30" height="30" viewBox="0 0 30 30" fill="none" xmlns="http://www.w3.org/2000/svg">
<path fill-rule="evenodd" clip-rule="evenodd" d="M25.6629 5.66291C26.029 5.2968 26.029 4.7032 25.6629 4.33709C25.2968 3.97097 24.7032 3.97097 24.3371 4.33709L4.33709 24.3371C3.97097 24.7032 3.97097 25.2968 4.33709 25.6629C4.7032 26.029 5.2968 26.029 5.66291 25.6629L9.45668 21.8691C11.104 22.629 12.9898 23.125 15 23.125C18.2722 23.125 21.215 21.8108 23.3355 20.1833C24.3971 19.3685 25.2682 18.4636 25.8794 17.5829C26.4789 16.719 26.875 15.8106 26.875 15C26.875 14.1894 26.4789 13.281 25.8794 12.4171C25.2682 11.5364 24.3971 10.6315 23.3355 9.81669C22.9972 9.55709 22.6381 9.30546 22.26 9.06586L25.6629 5.66291ZM18.9109 12.4149L17.5384 13.7874C17.7141 14.1546 17.8125 14.5658 17.8125 15C17.8125 16.5533 16.5533 17.8125 15 17.8125C14.5658 17.8125 14.1546 17.7141 13.7874 17.5384L12.4149 18.9109C13.156 19.4017 14.0446 19.6875 15 19.6875C17.5888 19.6875 19.6875 17.5888 19.6875 15C19.6875 14.0446 19.4017 13.156 18.9109 12.4149Z" fill="black"/>
<path d="M15.8701 10.3931C15.9537 10.4088 16.0403 10.3839 16.1005 10.3237L18.6341 7.7901C18.7664 7.65775 18.7116 7.43273 18.5317 7.38107C17.4188 7.06153 16.2328 6.875 15 6.875C11.7278 6.875 8.78501 8.18923 6.66452 9.81669C5.60289 10.6315 4.73179 11.5364 4.12061 12.4171C3.52108 13.281 3.125 14.1894 3.125 15C3.125 15.8106 3.52108 16.719 4.12061 17.5829C4.65096 18.3471 5.37702 19.1296 6.25346 19.8556C6.35164 19.9369 6.49536 19.9288 6.58551 19.8387L10.3237 16.1005C10.3839 16.0403 10.4088 15.9537 10.3931 15.8701C10.3402 15.5881 10.3125 15.2973 10.3125 15C10.3125 12.4112 12.4112 10.3125 15 10.3125C15.2973 10.3125 15.5881 10.3402 15.8701 10.3931Z" fill="black"/>
<path fill-rule="evenodd" clip-rule="evenodd" d="M25.6629 5.66291C26.029 5.2968 26.029 4.7032 25.6629 4.33709C25.2968 3.97097 24.7032 3.97097 24.3371 4.33709L4.33709 24.3371C3.97097 24.7032 3.97097 25.2968 4.33709 25.6629C4.7032 26.029 5.2968 26.029 5.66291 25.6629L9.45668 21.8691C11.104 22.629 12.9898 23.125 15 23.125C18.2722 23.125 21.215 21.8108 23.3355 20.1833C24.3971 19.3685 25.2682 18.4636 25.8794 17.5829C26.4789 16.719 26.875 15.8106 26.875 15C26.875 14.1894 26.4789 13.281 25.8794 12.4171C25.2682 11.5364 24.3971 10.6315 23.3355 9.81669C22.9972 9.55709 22.6381 9.30546 22.26 9.06586L25.6629 5.66291ZM18.9109 12.4149L17.5384 13.7874C17.7141 14.1546 17.8125 14.5658 17.8125 15C17.8125 16.5533 16.5533 17.8125 15 17.8125C14.5658 17.8125 14.1546 17.7141 13.7874 17.5384L12.4149 18.9109C13.156 19.4017 14.0446 19.6875 15 19.6875C17.5888 19.6875 19.6875 17.5888 19.6875 15C19.6875 14.0446 19.4017 13.156 18.9109 12.4149Z" fill="black"/>
<path d="M15.8701 10.3931C15.9537 10.4088 16.0403 10.3839 16.1005 10.3237L18.6341 7.7901C18.7664 7.65775 18.7116 7.43273 18.5317 7.38107C17.4188 7.06153 16.2328 6.875 15 6.875C11.7278 6.875 8.78501 8.18923 6.66452 9.81669C5.60289 10.6315 4.73179 11.5364 4.12061 12.4171C3.52108 13.281 3.125 14.1894 3.125 15C3.125 15.8106 3.52108 16.719 4.12061 17.5829C4.65096 18.3471 5.37702 19.1296 6.25346 19.8556C6.35164 19.9369 6.49536 19.9288 6.58551 19.8387L10.3237 16.1005C10.3839 16.0403 10.4088 15.9537 10.3931 15.8701C10.3402 15.5881 10.3125 15.2973 10.3125 15C10.3125 12.4112 12.4112 10.3125 15 10.3125C15.2973 10.3125 15.5881 10.3402 15.8701 10.3931Z" fill="black"/>
</svg>
