<svg width="30" height="30" viewBox="0 0 30 30" fill="none" xmlns="http://www.w3.org/2000/svg">
<path d="M15 12.1875C13.4467 12.1875 12.1875 13.4467 12.1875 15C12.1875 16.5533 13.4467 17.8125 15 17.8125C16.5533 17.8125 17.8125 16.5533 17.8125 15C17.8125 13.4467 16.5533 12.1875 15 12.1875Z" fill="black"/>
<path fill-rule="evenodd" clip-rule="evenodd" d="M15 6.875C11.7278 6.875 8.78501 8.18923 6.66452 9.81669C5.60289 10.6315 4.73179 11.5364 4.12061 12.4171C3.52108 13.281 3.125 14.1894 3.125 15C3.125 15.8106 3.52108 16.719 4.12061 17.5829C4.73179 18.4636 5.60289 19.3685 6.66452 20.1833C8.78501 21.8108 11.7278 23.125 15 23.125C18.2722 23.125 21.215 21.8108 23.3355 20.1833C24.3971 19.3685 25.2682 18.4636 25.8794 17.5829C26.4789 16.719 26.875 15.8106 26.875 15C26.875 14.1894 26.4789 13.281 25.8794 12.4171C25.2682 11.5364 24.3971 10.6315 23.3355 9.81669C21.215 8.18923 18.2722 6.875 15 6.875ZM10.3125 15C10.3125 12.4112 12.4112 10.3125 15 10.3125C17.5888 10.3125 19.6875 12.4112 19.6875 15C19.6875 17.5888 17.5888 19.6875 15 19.6875C12.4112 19.6875 10.3125 17.5888 10.3125 15Z" fill="black"/>
</svg>
