<svg width="30" height="30" viewBox="0 0 30 30" fill="none" xmlns="http://www.w3.org/2000/svg">
<g id="Solid/Status/Lock">
<path id="Icon" fill-rule="evenodd" clip-rule="evenodd" d="M9.13276 9.69772L9.56159 13.5572L8.69381 13.6264C7.48369 13.7231 6.49556 14.6327 6.2994 15.8307C5.84728 18.5919 5.84728 21.4081 6.2994 24.1693C6.49556 25.3673 7.48369 26.2769 8.69381 26.3735L10.564 26.5228C13.5166 26.7586 16.4834 26.7586 19.4361 26.5228L21.3063 26.3735C22.5164 26.2769 23.5045 25.3673 23.7007 24.1693C24.1528 21.4081 24.1528 18.5919 23.7007 15.8307C23.5045 14.6327 22.5164 13.7231 21.3063 13.6264L20.4384 13.5572L20.8672 9.69772C20.9177 9.24274 20.9177 8.78357 20.8672 8.3286L20.8387 8.07248C20.5369 5.35574 18.4011 3.20617 15.6864 2.88679C15.2303 2.83314 14.7696 2.83314 14.3136 2.88679C11.5988 3.20617 9.46308 5.35574 9.16122 8.07248L9.13276 8.3286C9.08221 8.78357 9.08221 9.24275 9.13276 9.69772ZM15.4673 4.74895C15.1568 4.71242 14.8431 4.71242 14.5326 4.74895C12.6844 4.96639 11.2303 6.42989 11.0248 8.27954L10.9963 8.53566C10.961 8.85301 10.961 9.1733 10.9963 9.49066L11.4323 13.4146C13.8083 13.2623 16.1916 13.2623 18.5676 13.4146L19.0036 9.49066C19.0389 9.1733 19.0389 8.85302 19.0036 8.53566L18.9752 8.27954C18.7697 6.42989 17.3156 4.96639 15.4673 4.74895ZM15 18.125C13.9645 18.125 13.125 18.9645 13.125 20C13.125 21.0355 13.9645 21.875 15 21.875C16.0355 21.875 16.875 21.0355 16.875 20C16.875 18.9645 16.0355 18.125 15 18.125Z" fill="black"/>
</g>
</svg>
