<svg width="267" height="45" viewBox="0 0 267 45" fill="none" xmlns="http://www.w3.org/2000/svg">
<path d="M66.19 28.65V33H63.58C61.72 33 60.27 32.55 59.23 31.65C58.19 30.73 57.67 29.24 57.67 27.18V20.52H55.63V16.26H57.67V12.18H62.8V16.26H66.16V20.52H62.8V27.24C62.8 27.74 62.92 28.1 63.16 28.32C63.4 28.54 63.8 28.65 64.36 28.65H66.19ZM71.6275 14.52C70.7275 14.52 69.9875 14.26 69.4075 13.74C68.8475 13.2 68.5675 12.54 68.5675 11.76C68.5675 10.96 68.8475 10.3 69.4075 9.78C69.9875 9.24 70.7275 8.97 71.6275 8.97C72.5075 8.97 73.2275 9.24 73.7875 9.78C74.3675 10.3 74.6575 10.96 74.6575 11.76C74.6575 12.54 74.3675 13.2 73.7875 13.74C73.2275 14.26 72.5075 14.52 71.6275 14.52ZM74.1775 16.26V33H69.0475V16.26H74.1775ZM99.2552 16.08C101.335 16.08 102.985 16.71 104.205 17.97C105.445 19.23 106.065 20.98 106.065 23.22V33H100.965V23.91C100.965 22.83 100.675 22 100.095 21.42C99.5352 20.82 98.7552 20.52 97.7552 20.52C96.7552 20.52 95.9652 20.82 95.3852 21.42C94.8252 22 94.5452 22.83 94.5452 23.91V33H89.4452V23.91C89.4452 22.83 89.1552 22 88.5752 21.42C88.0152 20.82 87.2352 20.52 86.2352 20.52C85.2352 20.52 84.4452 20.82 83.8652 21.42C83.3052 22 83.0252 22.83 83.0252 23.91V33H77.8952V16.26H83.0252V18.36C83.5452 17.66 84.2252 17.11 85.0652 16.71C85.9052 16.29 86.8552 16.08 87.9152 16.08C89.1752 16.08 90.2952 16.35 91.2752 16.89C92.2752 17.43 93.0552 18.2 93.6152 19.2C94.1952 18.28 94.9852 17.53 95.9852 16.95C96.9852 16.37 98.0752 16.08 99.2552 16.08ZM125.433 24.36C125.433 24.84 125.403 25.34 125.343 25.86H113.733C113.813 26.9 114.143 27.7 114.723 28.26C115.323 28.8 116.053 29.07 116.913 29.07C118.193 29.07 119.083 28.53 119.583 27.45H125.043C124.763 28.55 124.253 29.54 123.513 30.42C122.793 31.3 121.883 31.99 120.783 32.49C119.683 32.99 118.453 33.24 117.093 33.24C115.453 33.24 113.993 32.89 112.713 32.19C111.433 31.49 110.433 30.49 109.713 29.19C108.993 27.89 108.633 26.37 108.633 24.63C108.633 22.89 108.983 21.37 109.683 20.07C110.403 18.77 111.403 17.77 112.683 17.07C113.963 16.37 115.433 16.02 117.093 16.02C118.713 16.02 120.153 16.36 121.413 17.04C122.673 17.72 123.653 18.69 124.353 19.95C125.073 21.21 125.433 22.68 125.433 24.36ZM120.183 23.01C120.183 22.13 119.883 21.43 119.283 20.91C118.683 20.39 117.933 20.13 117.033 20.13C116.173 20.13 115.443 20.38 114.843 20.88C114.263 21.38 113.903 22.09 113.763 23.01H120.183ZM151.989 11.94V33H146.859V20.37L142.149 33H138.009L133.269 20.34V33H128.139V11.94H134.199L140.109 26.52L145.959 11.94H151.989ZM154.658 24.6C154.658 22.88 154.978 21.37 155.618 20.07C156.278 18.77 157.168 17.77 158.288 17.07C159.408 16.37 160.658 16.02 162.038 16.02C163.218 16.02 164.248 16.26 165.128 16.74C166.028 17.22 166.718 17.85 167.198 18.63V16.26H172.328V33H167.198V30.63C166.698 31.41 165.998 32.04 165.098 32.52C164.218 33 163.188 33.24 162.008 33.24C160.648 33.24 159.408 32.89 158.288 32.19C157.168 31.47 156.278 30.46 155.618 29.16C154.978 27.84 154.658 26.32 154.658 24.6ZM167.198 24.63C167.198 23.35 166.838 22.34 166.118 21.6C165.418 20.86 164.558 20.49 163.538 20.49C162.518 20.49 161.648 20.86 160.928 21.6C160.228 22.32 159.878 23.32 159.878 24.6C159.878 25.88 160.228 26.9 160.928 27.66C161.648 28.4 162.518 28.77 163.538 28.77C164.558 28.77 165.418 28.4 166.118 27.66C166.838 26.92 167.198 25.91 167.198 24.63ZM186.24 16.08C188.2 16.08 189.76 16.72 190.92 18C192.1 19.26 192.69 21 192.69 23.22V33H187.59V23.91C187.59 22.79 187.3 21.92 186.72 21.3C186.14 20.68 185.36 20.37 184.38 20.37C183.4 20.37 182.62 20.68 182.04 21.3C181.46 21.92 181.17 22.79 181.17 23.91V33H176.04V16.26H181.17V18.48C181.69 17.74 182.39 17.16 183.27 16.74C184.15 16.3 185.14 16.08 186.24 16.08ZM195.235 24.6C195.235 22.88 195.555 21.37 196.195 20.07C196.855 18.77 197.745 17.77 198.865 17.07C199.985 16.37 201.235 16.02 202.615 16.02C203.795 16.02 204.825 16.26 205.705 16.74C206.605 17.22 207.295 17.85 207.775 18.63V16.26H212.905V33H207.775V30.63C207.275 31.41 206.575 32.04 205.675 32.52C204.795 33 203.765 33.24 202.585 33.24C201.225 33.24 199.985 32.89 198.865 32.19C197.745 31.47 196.855 30.46 196.195 29.16C195.555 27.84 195.235 26.32 195.235 24.6ZM207.775 24.63C207.775 23.35 207.415 22.34 206.695 21.6C205.995 20.86 205.135 20.49 204.115 20.49C203.095 20.49 202.225 20.86 201.505 21.6C200.805 22.32 200.455 23.32 200.455 24.6C200.455 25.88 200.805 26.9 201.505 27.66C202.225 28.4 203.095 28.77 204.115 28.77C205.135 28.77 205.995 28.4 206.695 27.66C207.415 26.92 207.775 25.91 207.775 24.63ZM222.976 16.02C224.156 16.02 225.186 16.26 226.066 16.74C226.966 17.22 227.656 17.85 228.136 18.63V16.26H233.266V32.97C233.266 34.51 232.956 35.9 232.336 37.14C231.736 38.4 230.806 39.4 229.546 40.14C228.306 40.88 226.756 41.25 224.896 41.25C222.416 41.25 220.406 40.66 218.866 39.48C217.326 38.32 216.446 36.74 216.226 34.74H221.296C221.456 35.38 221.836 35.88 222.436 36.24C223.036 36.62 223.776 36.81 224.656 36.81C225.716 36.81 226.556 36.5 227.176 35.88C227.816 35.28 228.136 34.31 228.136 32.97V30.6C227.636 31.38 226.946 32.02 226.066 32.52C225.186 33 224.156 33.24 222.976 33.24C221.596 33.24 220.346 32.89 219.226 32.19C218.106 31.47 217.216 30.46 216.556 29.16C215.916 27.84 215.596 26.32 215.596 24.6C215.596 22.88 215.916 21.37 216.556 20.07C217.216 18.77 218.106 17.77 219.226 17.07C220.346 16.37 221.596 16.02 222.976 16.02ZM228.136 24.63C228.136 23.35 227.776 22.34 227.056 21.6C226.356 20.86 225.496 20.49 224.476 20.49C223.456 20.49 222.586 20.86 221.866 21.6C221.166 22.32 220.816 23.32 220.816 24.6C220.816 25.88 221.166 26.9 221.866 27.66C222.586 28.4 223.456 28.77 224.476 28.77C225.496 28.77 226.356 28.4 227.056 27.66C227.776 26.92 228.136 25.91 228.136 24.63ZM252.757 24.36C252.757 24.84 252.727 25.34 252.667 25.86H241.057C241.137 26.9 241.467 27.7 242.047 28.26C242.647 28.8 243.377 29.07 244.237 29.07C245.517 29.07 246.407 28.53 246.907 27.45H252.367C252.087 28.55 251.577 29.54 250.837 30.42C250.117 31.3 249.207 31.99 248.107 32.49C247.007 32.99 245.777 33.24 244.417 33.24C242.777 33.24 241.317 32.89 240.037 32.19C238.757 31.49 237.757 30.49 237.037 29.19C236.317 27.89 235.957 26.37 235.957 24.63C235.957 22.89 236.307 21.37 237.007 20.07C237.727 18.77 238.727 17.77 240.007 17.07C241.287 16.37 242.757 16.02 244.417 16.02C246.037 16.02 247.477 16.36 248.737 17.04C249.997 17.72 250.977 18.69 251.677 19.95C252.397 21.21 252.757 22.68 252.757 24.36ZM247.507 23.01C247.507 22.13 247.207 21.43 246.607 20.91C246.007 20.39 245.257 20.13 244.357 20.13C243.497 20.13 242.767 20.38 242.167 20.88C241.587 21.38 241.227 22.09 241.087 23.01H247.507ZM260.594 19.05C261.194 18.13 261.944 17.41 262.844 16.89C263.744 16.35 264.744 16.08 265.844 16.08V21.51H264.434C263.154 21.51 262.194 21.79 261.554 22.35C260.914 22.89 260.594 23.85 260.594 25.23V33H255.464V16.26H260.594V19.05Z" fill="black"/>
<circle cx="36.5" cy="35.5" r="8.5" fill="#E2F2FB"/>
<ellipse cx="31" cy="36.5" rx="8" ry="8.5" fill="#C5E6F8"/>
<circle cx="23.5" cy="36.5" r="8.5" fill="#A9D9F4"/>
<circle cx="15.5" cy="35.5" r="8.5" fill="#8CCDF1"/>
<circle cx="9" cy="32" r="9" fill="#6FC0ED"/>
<rect x="20.6512" y="6.68457" width="3.45384" height="20.1854" transform="rotate(30.4542 20.6512 6.68457)" fill="#6FC0ED"/>
<circle cx="23" cy="5" r="5" fill="#6FC0ED"/>
</svg>
