<svg width="44" height="45" viewBox="0 0 44 45" fill="none" xmlns="http://www.w3.org/2000/svg">
<path d="M22.0478 0C9.87114 0 0 10.0736 0 22.5C0 34.9264 9.87114 45 22.0478 45C33.5065 45 42.9223 36.0803 43.9941 24.6726C44.0439 24.1416 43.7767 23.632 43.3161 23.3799C42.8555 23.1278 42.2917 23.1824 41.8858 23.5185C39.656 25.365 36.8164 26.4706 33.7202 26.4706C26.5574 26.4706 20.7509 20.5449 20.7509 13.2353C20.7509 8.89384 22.7978 5.04062 25.9661 2.625C26.385 2.30561 26.5749 1.76073 26.4479 1.24309C26.3208 0.725456 25.9015 0.336328 25.3846 0.256193C24.2957 0.0874108 23.1813 0 22.0478 0Z" fill="#B54BE7"/>
</svg>
