<svg width="45" height="45" viewBox="0 0 45 45" fill="none" xmlns="http://www.w3.org/2000/svg">
<path d="M9.1954 0.529877C9.90784 1.23638 9.90784 2.38185 9.1954 3.08835L3.11432 9.11872C2.40187 9.82523 1.24678 9.82523 0.534332 9.11872C-0.178111 8.41222 -0.178111 7.26675 0.534332 6.56025L6.61541 0.529877C7.32786 -0.176626 8.48295 -0.176626 9.1954 0.529877Z" fill="#FB5555"/>
<path fill-rule="evenodd" clip-rule="evenodd" d="M22.5 3.01519C11.0811 3.01519 1.82432 12.1948 1.82432 23.5185C1.82432 34.8421 11.0811 44.0217 22.5 44.0217C33.9189 44.0217 43.1757 34.8421 43.1757 23.5185C43.1757 12.1948 33.9189 3.01519 22.5 3.01519ZM24.3243 11.4577C24.3243 10.4586 23.5075 9.6486 22.5 9.6486C21.4925 9.6486 20.6757 10.4586 20.6757 11.4577V23.5185C20.6757 24.1422 20.9997 24.722 21.5331 25.0526L28.8304 29.5754C29.6848 30.1049 30.8103 29.8473 31.3443 29.0001C31.8783 28.1528 31.6186 27.0367 30.7642 26.5071L24.3243 22.5158V11.4577Z" fill="#FB5555"/>
<path d="M35.8046 3.08835C35.0922 2.38185 35.0922 1.23638 35.8046 0.529877C36.517 -0.176626 37.6721 -0.176626 38.3846 0.529877L44.4657 6.56025C45.1781 7.26675 45.1781 8.41222 44.4657 9.11872C43.7532 9.82523 42.5981 9.82523 41.8857 9.11872L35.8046 3.08835Z" fill="#FB5555"/>
</svg>
