<svg width="25" height="29" viewBox="0 0 25 29" fill="none" xmlns="http://www.w3.org/2000/svg">
<path d="M23.1751 0.692142C24.0696 1.02169 24.6638 1.87389 24.6638 2.82714L24.6638 25.3997C24.6638 26.3529 24.0696 27.2051 23.1751 27.5347C21.4828 28.1582 19.6236 28.1582 17.9313 27.5347C17.0368 27.2051 16.4426 26.3529 16.4426 25.3997L16.4426 2.82714C16.4426 1.87389 17.0368 1.02169 17.9313 0.692142C19.6236 0.0686431 21.4828 0.0686432 23.1751 0.692142Z" fill="white"/>
<path d="M6.73257 0.692142C7.62705 1.02169 8.22128 1.87389 8.22128 2.82714L8.22128 25.3997C8.22128 26.3529 7.62705 27.2051 6.73257 27.5347C5.04022 28.1582 3.18106 28.1582 1.48871 27.5347C0.594227 27.2051 -4.76207e-08 26.3529 0 25.3997L1.12763e-06 2.82714C1.17525e-06 1.87389 0.594228 1.02169 1.48871 0.692142C3.18106 0.0686431 5.04022 0.0686432 6.73257 0.692142Z" fill="white"/>
</svg>
