
<svg width="43" height="45" viewBox="0 0 43 45" fill="none" xmlns="http://www.w3.org/2000/svg">
<path fill-rule="evenodd" clip-rule="evenodd" d="M19.2585 13.7775C19.2785 13.517 19.4957 13.3158 19.757 13.3158H20.8725C21.1294 13.3158 21.3444 13.5105 21.37 13.7661L22.3405 23.4708L29.197 27.3888C29.3528 27.4778 29.4489 27.6435 29.4489 27.8229V28.9091C29.4489 29.2388 29.1354 29.4782 28.8174 29.3915L18.6772 26.626C18.4458 26.5629 18.2918 26.3444 18.3102 26.1052L19.2585 13.7775Z" fill="#27A81C"/>
<path fill-rule="evenodd" clip-rule="evenodd" d="M9.90449 0.178922C9.64039 -0.135826 9.13044 -0.0153551 9.03511 0.384307L6.34478 11.6633C6.2671 11.9889 6.52518 12.2974 6.85943 12.2785L18.4622 11.621C18.8731 11.5977 19.0815 11.1156 18.8169 10.8004L15.7375 7.1304C17.5119 6.52406 19.3934 6.20737 21.3254 6.20737C30.8597 6.20737 38.5888 13.9364 38.5888 23.4708C38.5888 33.0051 30.8597 40.7341 21.3254 40.7341C11.7911 40.7341 4.06197 33.0051 4.06197 23.4708C4.06197 21.8702 4.27872 20.3025 4.70135 18.7959L0.790325 17.6988C0.275391 19.5346 0 21.4705 0 23.4708C0 35.2484 9.54769 44.7961 21.3254 44.7961C33.103 44.7961 42.6507 35.2484 42.6507 23.4708C42.6507 11.6931 33.103 2.14539 21.3254 2.14539C18.3628 2.14539 15.5414 2.74949 12.9775 3.84121L9.90449 0.178922Z" fill="#27A81C"/>
</svg>
